<?xml version="1.0" standalone="no"?>
<!DOCTYPE svg PUBLIC "-//W3C//DTD SVG 20010904//EN"
 "http://www.w3.org/TR/2001/REC-SVG-20010904/DTD/svg10.dtd">
<svg version="1.0" xmlns="http://www.w3.org/2000/svg"
 width="1024.000000pt" height="1024.000000pt" viewBox="0 0 1024.000000 1024.000000"
 preserveAspectRatio="xMidYMid meet">
<metadata>
Created by potrace 1.11, written by Peter Selinger 2001-2013
</metadata>
<g transform="translate(0.000000,1024.000000) scale(0.100000,-0.100000)"
fill="#000000" stroke="none">
<path d="M4850 9864 c-711 -61 -1349 -259 -1962 -610 -1211 -693 -2034 -1812
-2208 -3004 -98 -672 15 -1244 395 -1995 369 -730 934 -1486 1670 -2234 803
-815 1634 -1437 2151 -1609 188 -63 310 -61 519 9 777 259 2093 1399 2991
2594 563 747 943 1476 1103 2110 93 370 109 728 51 1125 -114 783 -499 1527
-1120 2164 -768 788 -1792 1302 -2855 1432 -123 15 -627 27 -735 18z m685
-329 c524 -62 1011 -212 1490 -459 1139 -587 1960 -1596 2194 -2696 43 -205
55 -326 56 -575 0 -268 -10 -353 -72 -599 -176 -703 -659 -1552 -1356 -2386
-381 -456 -845 -925 -1277 -1291 -623 -527 -1217 -871 -1461 -846 -194 21
-585 240 -1038 583 -861 650 -1753 1597 -2336 2479 -414 625 -654 1171 -751
1710 -26 140 -26 538 0 710 53 364 152 676 321 1020 312 633 795 1174 1430
1604 655 444 1363 699 2115 761 146 12 529 4 685 -15z"/>
<path d="M1942 6690 c-164 -21 -316 -70 -390 -127 -77 -59 -140 -197 -179
-398 -25 -127 -25 -493 0 -655 78 -504 279 -922 597 -1241 217 -217 548 -432
866 -563 322 -132 708 -201 987 -176 328 29 482 110 577 305 187 383 103 1134
-186 1675 -346 645 -929 1041 -1718 1166 -111 18 -454 26 -554 14z"/>
<path d="M7855 6690 c-566 -64 -1062 -284 -1424 -634 -348 -336 -581 -803
-668 -1341 -22 -139 -25 -492 -4 -605 33 -184 105 -343 182 -401 124 -95 352
-149 624 -149 282 0 612 65 886 175 792 319 1277 955 1411 1850 20 136 17 496
-5 613 -24 125 -69 246 -115 307 -63 83 -176 137 -360 171 -94 18 -418 26
-527 14z"/>
<path d="M3750 3098 c-121 -34 -167 -176 -101 -313 83 -172 353 -402 636 -540
521 -254 1111 -260 1641 -15 292 135 585 380 669 561 51 109 27 231 -56 286
-68 45 -117 38 -384 -56 -127 -45 -285 -97 -350 -116 -261 -77 -548 -110 -824
-94 -269 15 -437 54 -842 192 -292 100 -334 110 -389 95z"/>
</g>
</svg>
